<svg width="128" height="128" viewBox="0 0 128 128" xmlns="http://www.w3.org/2000/svg">
  <defs>
    <linearGradient id="wordpressGradient" x1="0%" y1="0%" x2="100%" y2="100%">
      <stop offset="0%" style="stop-color:#21759B;stop-opacity:1" />
      <stop offset="100%" style="stop-color:#005177;stop-opacity:1" />
    </linearGradient>
  </defs>
  
  <!-- Background circle -->
  <circle cx="64" cy="64" r="56" fill="url(#wordpressGradient)" stroke="#005177" stroke-width="2"/>
  
  <!-- Document icon -->
  <rect x="32" y="24" width="48" height="64" rx="4" ry="4" fill="white" opacity="0.9"/>
  <rect x="32" y="24" width="48" height="8" rx="4" ry="4" fill="#21759B"/>
  
  <!-- Text lines representing readme content -->
  <rect x="36" y="36" width="16" height="2" fill="#666"/>
  <rect x="36" y="40" width="32" height="2" fill="#666"/>
  <rect x="36" y="44" width="28" height="2" fill="#666"/>
  
  <!-- Section divider -->
  <rect x="36" y="52" width="20" height="2" fill="#21759B"/>
  
  <!-- More text lines -->
  <rect x="36" y="58" width="36" height="2" fill="#666"/>
  <rect x="36" y="62" width="24" height="2" fill="#666"/>
  <rect x="36" y="66" width="32" height="2" fill="#666"/>
  
  <!-- WordPress "W" in corner -->
  <circle cx="72" cy="76" r="8" fill="#21759B"/>
  <text x="72" y="81" font-family="Arial, sans-serif" font-size="10" font-weight="bold" text-anchor="middle" fill="white">W</text>
  
  <!-- Preview indicator -->
  <circle cx="88" cy="40" r="6" fill="#00A32A"/>
  <path d="M85 40 l2 2 l4 -4" stroke="white" stroke-width="1.5" fill="none"/>
</svg>